<svg xmlns="http://www.w3.org/2000/svg" xmlns:xlink="http://www.w3.org/1999/xlink"><symbol id="icon-arrow" viewBox="0 0 512 512">
   <path d="M506.134,241.843c-0.006-0.006-0.011-0.013-0.018-0.019l-104.504-104c-7.829-7.791-20.492-7.762-28.285,0.068
			c-7.792,7.829-7.762,20.492,0.067,28.284L443.558,236H20c-11.046,0-20,8.954-20,20c0,11.046,8.954,20,20,20h423.557
			l-70.162,69.824c-7.829,7.792-7.859,20.455-0.067,28.284c7.793,7.831,20.457,7.858,28.285,0.068l104.504-104
			c0.006-0.006,0.011-0.013,0.018-0.019C513.968,262.339,513.943,249.635,506.134,241.843z"/>
</symbol><symbol id="icon-codepen-1" viewBox="0 0 166 30">
<path d="M10.4158 7.30854C12.2761 7.30854 13.9808 7.9779 15.3062 9.08402L17.1075 6.94725C15.2965 5.43241 12.9623 4.51757 10.4164 4.51757C4.67257 4.51757 0 9.16789 0 14.8834C0 20.6002 4.67289 25.2505 10.4171 25.2485C12.9629 25.2485 15.2968 24.3337 17.1078 22.8189L15.3065 20.6821C13.9383 21.8299 12.206 22.4589 10.4164 22.4576C6.21972 22.4576 2.80484 19.0598 2.80484 14.8834C2.80451 10.7072 6.21972 7.30757 10.4171 7.30854H10.4158ZM68.074 5.11628H62.4656C62.0939 5.11637 61.7374 5.26335 61.4746 5.52492C61.2117 5.78648 61.0641 6.14121 61.064 6.51112V23.2553C61.0642 23.6252 61.212 23.9799 61.4748 24.2414C61.7375 24.503 62.0939 24.6501 62.4656 24.6505H68.0743C73.4865 24.6505 77.8891 20.2689 77.8891 14.8831C77.8891 9.4966 73.4872 5.11499 68.073 5.11628H68.0743H68.074ZM68.074 21.8605H63.8678V7.90693H68.0743C71.94 7.90693 75.0833 11.0379 75.0833 14.884C75.0849 18.7327 71.94 21.8595 68.073 21.8605H68.0743H68.074ZM85.4813 6.51177V23.256C85.4816 23.6258 85.6294 23.9805 85.8923 24.242C86.1551 24.5035 86.5115 24.6505 86.8832 24.6508H98.568V21.8605H88.2861V16.2785H94.829V13.4882H88.2858V7.9066H98.5677V5.11628H86.8832C86.6991 5.11611 86.5169 5.15208 86.3468 5.22214C86.1768 5.29219 86.0223 5.39495 85.8922 5.52452C85.7621 5.65409 85.659 5.80794 85.5887 5.97724C85.5185 6.14653 85.4825 6.32796 85.4829 6.51112H85.4813V6.51177ZM127.924 6.51177V23.256C127.924 23.6258 128.072 23.9805 128.335 24.242C128.598 24.5035 128.954 24.6505 129.326 24.6508H141.01V21.8605H130.728V16.2785H137.271V13.4882H130.728V7.9066H141.01V5.11628H129.327C129.142 5.11607 128.96 5.152 128.79 5.22202C128.62 5.29204 128.465 5.39477 128.335 5.52433C128.205 5.65389 128.101 5.80774 128.031 5.97706C127.961 6.14639 127.924 6.32787 127.925 6.51112H127.924L127.924 6.51177ZM114.58 5.11628H108.504C108.132 5.11637 107.776 5.26335 107.513 5.52492C107.25 5.78648 107.102 6.14121 107.102 6.51112V24.6508H109.907V16.2785H114.581C117.673 16.2785 120.189 13.7747 120.189 10.6976C120.189 7.62015 117.673 5.11499 114.579 5.11628H114.58ZM114.58 13.4879H109.906V7.90725H114.58C116.126 7.90725 117.384 9.15789 117.384 10.6976C117.384 12.2372 116.126 13.4892 114.579 13.4879H114.58ZM162.932 5.11628V19.4018L151.39 5.6179C151.206 5.39747 150.958 5.23898 150.68 5.16405C150.401 5.08912 150.107 5.10139 149.836 5.19919C149.565 5.29685 149.331 5.47516 149.165 5.70989C149 5.94461 148.911 6.22437 148.911 6.51112V24.6508H151.715V10.3656L163.257 24.1489C163.441 24.3691 163.689 24.5274 163.967 24.6022C164.245 24.677 164.539 24.6647 164.81 24.5669C165.081 24.4693 165.315 24.291 165.48 24.0562C165.646 23.8215 165.735 23.5417 165.735 23.255V5.11531H162.932V5.11628ZM53.0981 10.1263C53.0913 10.0902 53.0851 10.054 53.0754 10.0189C53.0695 9.99757 53.0624 9.97757 53.0553 9.9566C53.0455 9.92523 53.0344 9.89424 53.0222 9.8637C53.0135 9.84241 53.0034 9.82177 52.9937 9.80144C52.9803 9.77257 52.9657 9.74426 52.9499 9.71661C52.9386 9.69628 52.9256 9.67693 52.9133 9.65725C52.8662 9.58468 52.8119 9.51703 52.7512 9.45531C52.7344 9.43854 52.7175 9.42144 52.6994 9.40499C52.6761 9.38382 52.6519 9.36369 52.6268 9.34467C52.6073 9.32983 52.5885 9.31467 52.5684 9.3008C52.561 9.29564 52.5548 9.28951 52.547 9.28467L38.8768 0.214991C38.6658 0.074812 38.4177 0 38.164 0C37.9103 0 37.6622 0.074812 37.4512 0.214991L23.7803 9.28435C23.7726 9.28919 23.7664 9.29531 23.7589 9.30048C23.7388 9.31467 23.72 9.32951 23.7006 9.34402C23.6562 9.37732 23.6147 9.41422 23.5765 9.45435C23.5148 9.5158 23.4603 9.58397 23.4141 9.65757C23.4014 9.67725 23.3891 9.69628 23.3774 9.71693C23.3612 9.74467 23.3473 9.77306 23.334 9.80112C23.3243 9.82177 23.3139 9.84241 23.3051 9.86338C23.2928 9.89391 23.2817 9.9249 23.2718 9.95628C23.2653 9.97725 23.2578 9.99757 23.2523 10.0166C23.2426 10.0518 23.2361 10.0876 23.2296 10.124C23.2261 10.1424 23.2215 10.1605 23.2192 10.1792C23.2118 10.2346 23.208 10.2904 23.2079 10.3463V19.4182C23.2079 19.4743 23.2118 19.5305 23.2199 19.5853C23.2228 19.6053 23.228 19.6214 23.2319 19.6408C23.2384 19.6769 23.2442 19.7127 23.2562 19.7489C23.2617 19.7689 23.2682 19.7892 23.2763 19.8111C23.2863 19.8434 23.2964 19.8753 23.3087 19.9047C23.3171 19.9247 23.3288 19.9447 23.3366 19.9647C23.3729 20.0434 23.4189 20.1173 23.4737 20.1847C23.4876 20.2047 23.5019 20.2208 23.5181 20.2402C23.5385 20.264 23.5583 20.2882 23.5823 20.3095C23.5988 20.3256 23.6147 20.3453 23.6348 20.3576C23.6581 20.3776 23.6834 20.3976 23.7074 20.4185C23.7269 20.4347 23.7476 20.4466 23.7638 20.4621C23.7713 20.466 23.7758 20.474 23.7839 20.4779L37.4512 29.5521C37.6671 29.6966 37.9147 29.7689 38.1643 29.7676C38.4181 29.7671 38.6661 29.6923 38.8775 29.5524L52.5483 20.4824C52.5558 20.4779 52.5623 20.4721 52.5694 20.4669C52.5898 20.4527 52.6086 20.4379 52.6277 20.4231C52.653 20.4037 52.6777 20.3831 52.701 20.3624C52.7185 20.3466 52.7354 20.3295 52.7525 20.3127C52.7912 20.2737 52.8271 20.232 52.8598 20.1879C52.8922 20.1438 52.9225 20.0983 52.9506 20.0514C52.9671 20.0237 52.9814 19.995 52.995 19.9663C53.0047 19.9456 53.0144 19.9253 53.0235 19.9043C53.0357 19.8736 53.0467 19.8424 53.0566 19.8108C53.0634 19.7902 53.0705 19.7698 53.0767 19.7489C53.0861 19.7134 53.0926 19.6776 53.0994 19.6414C53.1026 19.6231 53.1075 19.605 53.1091 19.5863C53.1166 19.5308 53.1208 19.4756 53.1208 19.4189V10.3489C53.1204 10.293 53.1166 10.2372 53.1094 10.1818C53.1062 10.1621 53.1 10.146 53.0961 10.1263H53.0981ZM38.1637 17.9098L33.6179 14.884L38.1637 11.8576L42.7102 14.884L38.1637 17.9098ZM36.8788 9.63564L31.306 13.345L26.8079 10.3505L36.8791 3.66886V9.63564H36.8788ZM28.9942 14.8834L25.779 17.0237V12.7431L28.9946 14.8834H28.9942ZM31.306 16.4237L36.8788 20.1327V26.0989L26.8075 19.4166L31.306 16.4224V16.4234V16.4237ZM39.4492 20.1318L45.022 16.4227L49.5205 19.4169L39.4492 26.0985V20.1318ZM47.3338 14.8843L50.5493 12.7437V17.0243L47.3338 14.8834V14.8843ZM45.022 13.345L39.4492 9.63596V3.66886L49.5205 10.3505L45.022 13.345Z"/>
</symbol><symbol id="icon-codepen-2" viewBox="0 0 18 18">
<path d="M17.6584 5.61455L9.43188 0.130188C9.15108 -0.0426042 8.85141 -0.0441862 8.56805 0.130188L0.341507 5.61455C0.13057 5.75514 0 6.0063 0 6.25738V11.7417C0 11.9928 0.13057 12.244 0.341542 12.3846L8.56809 17.8697C8.84888 18.0425 9.14855 18.0441 9.43191 17.8697L17.6585 12.3846C17.8694 12.244 18 11.9928 18 11.7417V6.25738C18 6.0063 17.8694 5.75514 17.6584 5.61455ZM9.77342 2.21941L15.8303 6.25738L13.1283 8.06543L9.77342 5.82546V2.21941ZM8.22655 2.21941V5.82546L4.87163 8.06543L2.16963 6.25738L8.22655 2.21941ZM1.54687 7.70381L3.48549 8.99957L1.54687 10.2953V7.70381ZM8.22655 15.7797L2.16963 11.7417L4.87163 9.9337L8.22655 12.1737V15.7797ZM8.99998 10.8277L6.26782 8.99957L8.99998 7.17144L11.7321 8.99957L8.99998 10.8277ZM9.77342 15.7797V12.1737L13.1283 9.9337L15.8303 11.7417L9.77342 15.7797ZM16.4531 10.2953L14.5145 8.99957L16.4531 7.70381V10.2953Z"/>
</symbol><symbol id="icon-dribbble-1" viewBox="0 0 166 39">
<path d="M50.6995 15.5756C52.5987 15.5756 54.1382 14.1047 54.1382 12.2906C54.1382 10.4762 52.5987 9.00565 50.6995 9.00565C48.8003 9.00565 47.2609 10.4762 47.2609 12.2906C47.2609 14.1047 48.8003 15.5756 50.6995 15.5756ZM164.185 26.7992C163.662 26.4479 163.258 26.3897 162.923 27.0719C157.147 39.0183 147.415 33.0569 148.381 33.5815C150.54 32.6384 156.218 28.2896 155.36 22.2848C154.839 18.6151 151.541 16.9873 148.04 17.5702C141.93 18.5876 139.682 24.8821 140.826 30.4547C141.026 31.4118 141.384 32.201 141.742 32.9742C134.837 38.3371 132.094 28.1735 131.783 26.959C131.771 26.894 137.115 22.6399 138.601 12.5026C140.159 1.87824 136.61 -0.0562785 132.981 0.00407865C126.266 0.115817 124.452 13.5154 126.889 24.683C126.685 24.7338 125.735 25.2365 124.208 25.2928C123.11 21.9911 118.415 19.0971 117.186 20.2123C114.111 23.002 117.932 28.4561 120.62 28.8839C119.005 38.3835 108.906 36.0308 110.786 24.1293C114.075 18.2963 116.576 9.62315 116.13 4.38725C115.972 2.53351 114.537 0.0498882 111.291 0.173079C105.049 0.408936 104.37 13.8122 105.102 23.3251C105.066 23.0908 104.718 24.4809 102.16 25.1721C101.555 21.9645 96.1471 18.7448 94.874 20.2927C92.4909 23.1899 96.6209 28.3555 98.5771 28.7158C96.9622 38.2151 86.8627 35.8624 88.7428 23.9609C92.0317 18.1282 94.5327 9.45508 94.0865 4.21917C93.9283 2.36513 92.4935 -0.118493 89.2477 0.00438817C83.0053 0.240555 82.3267 13.6439 83.0585 23.1568C83.0219 22.9187 82.6663 24.3546 80.0039 25.0343C79.9147 20.8728 74.4871 18.9646 73.1833 20.2924C70.8595 22.6594 73.7155 27.5158 76.3575 28.7158C74.7425 38.2151 64.6431 35.8624 66.5231 23.9609C69.812 18.1282 72.3134 9.45508 71.8668 4.21917C71.709 2.36513 70.2739 -0.118493 67.0281 0.00438817C60.786 0.240555 60.2837 14.3177 61.0155 23.8303C58.9594 32.2435 52.0643 42.7499 52.9601 21.7032C53.0486 20.2268 53.1451 19.6663 52.3744 19.1135C51.7969 18.6838 50.4837 18.8906 49.7658 18.9076C48.8933 18.9411 48.6746 19.4286 48.4817 20.1655C48.0325 22.0685 47.9518 23.9132 47.8877 26.4303C47.8455 27.6077 47.7467 28.1571 47.2719 29.7626C46.7977 31.3678 44.0925 34.3018 42.6114 33.8112C40.5566 33.1364 41.2307 27.5966 41.6158 23.7904C41.9366 20.7824 40.9092 19.4316 38.2769 18.9404C36.7359 18.6337 35.7996 18.6807 34.1946 18.1976C32.6769 17.7407 32.3337 14.999 29.0966 15.9127C27.3261 16.4129 28.4643 19.9956 28.0388 22.651C25.9467 35.7132 21.5938 36.072 19.5744 29.7267C28.6695 8.45284 22.2054 0.0659834 18.4216 0.0659834C14.4806 0.0659834 9.97565 2.65855 11.8833 19.2466C10.9557 18.9881 10.6705 18.8488 9.65512 18.8488C3.91248 18.8488 0 23.2824 0 28.7517C0 34.221 3.9128 38.6549 9.65545 38.6549C13.0455 38.6549 15.4256 37.1825 17.2283 34.9047C18.4044 36.5133 19.8366 38.6797 22.4556 38.5822C30.2621 38.2919 32.5324 22.9986 32.8004 22.1456C33.6349 22.2684 34.4244 22.5009 35.1951 22.6238C36.4792 22.8079 36.5725 23.2933 36.5434 24.5267C36.2031 34.928 38.2128 38.5698 42.7715 38.5698C45.3114 38.5698 47.5752 36.1865 49.1348 34.4822C50.2996 36.7783 52.1557 38.4996 54.6457 38.5695C60.6794 38.7128 62.9895 29.5283 62.7789 30.737C62.6136 31.6854 64.7364 38.5178 70.948 38.5426C78.6423 38.5735 80.0726 30.4925 80.2431 29.1389C80.2645 28.8696 80.2738 28.8975 80.2431 29.1389L80.2372 29.221C82.6799 28.787 83.9403 27.5362 83.9403 27.5362C83.9403 27.5362 85.9018 38.6682 93.1673 38.5429C100.712 38.4123 102.135 31.1075 102.322 29.6831C102.346 29.3451 102.361 29.3847 102.322 29.6831C102.321 29.697 102.32 29.7109 102.319 29.7249C105.22 28.7167 105.984 27.7049 105.984 27.7049C105.984 27.7049 107.543 38.6156 115.211 38.711C122.044 38.7964 124.576 32.1135 124.591 29.3163C125.744 29.3281 127.876 28.6632 127.826 28.6254C127.826 28.6254 130.329 38.165 137.318 38.6549C140.6 38.8849 143.062 36.8913 144.465 35.9819C147.763 38.5327 158.745 41.7907 165.68 30.5627C166.659 28.9514 164.554 27.0478 164.185 26.7992ZM9.37834 34.9512C6.02785 34.9512 3.87942 31.9924 3.87942 28.8022C3.87942 25.6122 5.85154 22.6535 9.20204 22.6535C10.7097 22.6535 11.5485 22.812 12.7227 23.7873C12.9356 24.5886 13.5391 26.4371 13.8327 27.2765C14.2262 28.3998 14.6942 29.3559 15.166 30.3965C14.4919 33.0656 12.2819 34.9512 9.37834 34.9512ZM17.543 23.8811C17.4036 23.669 17.4328 23.7993 17.2769 23.5991C16.6627 22.0035 15.4791 18.4421 15.342 14.3969C15.1871 9.82093 15.9857 4.4572 18.3399 4.4572C19.9351 4.4572 21.6304 15.3277 17.5426 23.8811H17.543ZM64.7186 19.1131C64.3407 16.3977 64.3209 4.29222 67.3638 4.62558C69.044 5.27558 66.2985 16.6986 64.7186 19.1131ZM86.9382 19.1131C86.5603 16.3977 86.5406 4.29222 89.5835 4.62558C91.2636 5.27558 88.5182 16.6986 86.9382 19.1131ZM108.982 19.2818C108.603 16.5661 108.584 4.4606 111.626 4.79396C113.307 5.44396 110.561 16.8672 108.982 19.2818ZM133.317 3.91708C136.099 3.6416 135.985 15.2444 130.4 22.5696C129.68 19.9219 128.576 4.82615 133.317 3.91677V3.91708ZM145.011 28.8839C144.117 24.5731 146.426 21.7419 148.806 21.4315C149.638 21.3046 150.844 21.8193 151.084 22.7816C151.48 24.5951 151.027 27.2852 145.7 30.6983C145.707 30.7274 145.21 29.844 145.011 28.8839H145.011Z"/>
</symbol><symbol id="icon-dribbble-2" viewBox="0 0 18 18">
<path d="M9 0C4.03737 0 0 4.03737 0 9C0 13.9626 4.03737 18 9 18C13.9626 18 18 13.9626 18 9C18 4.03737 13.9626 0 9 0ZM14.9505 4.15038C16.0212 5.4585 16.6696 7.12462 16.6865 8.93907C16.433 8.88547 13.8915 8.36996 11.3336 8.69164C11.1248 8.18209 10.9278 7.73383 10.658 7.18146C13.5003 6.021 14.7885 4.36961 14.9505 4.15038ZM14.0959 3.26141C13.9577 3.45836 12.8005 5.01373 10.0669 6.03831C8.80723 3.72386 7.41103 1.82254 7.19855 1.53802C9.63639 0.950371 12.2054 1.58411 14.0959 3.26141ZM5.73173 2.05476C5.93441 2.33271 7.30811 4.23639 8.58186 6.50065C4.98596 7.45556 1.8188 7.4418 1.47498 7.43727C1.97347 5.05179 3.58106 3.06918 5.73173 2.05476ZM1.31262 9.01172C1.31262 8.93312 1.31418 8.85487 1.31654 8.77681C1.65288 8.78371 5.37815 8.83172 9.21716 7.68281C9.43723 8.1135 9.64746 8.55069 9.84041 8.98741C7.06061 9.77037 4.53498 12.0186 3.28888 14.1517C2.06107 12.7889 1.31262 10.9862 1.31262 9.01172ZM4.28142 15.0763C5.08442 13.4348 7.26369 11.3158 10.3629 10.2585C11.4422 13.0632 11.8885 15.4137 12.0028 16.0882C9.53104 17.141 6.55875 16.8522 4.28142 15.0763ZM13.2952 15.3844C13.2164 14.9167 12.8073 12.6663 11.8018 9.90334C14.2107 9.51772 16.3272 10.149 16.5902 10.2319C16.2475 12.3709 15.0198 14.2182 13.2952 15.3844Z"/>
</symbol><symbol id="icon-email" viewBox="0 0 12 9">
<path d="M10.875 0H1.125C0.503906 0 0 0.503906 0 1.125V7.875C0 8.49609 0.503906 9 1.125 9H10.875C11.4961 9 12 8.49609 12 7.875V1.125C12 0.503906 11.4961 0 10.875 0ZM1.125 0.75H10.875C11.0813 0.75 11.25 0.91875 11.25 1.125V2.09531C10.7367 2.52891 10.0031 3.12656 7.72031 4.93828C7.32422 5.25234 6.54375 6.00938 6 6C5.45625 6.00938 4.67344 5.25234 4.27969 4.93828C1.99688 3.12656 1.26328 2.52891 0.75 2.09531V1.125C0.75 0.91875 0.91875 0.75 1.125 0.75ZM10.875 8.25H1.125C0.91875 8.25 0.75 8.08125 0.75 7.875V3.07031C1.28437 3.50859 2.12812 4.18594 3.81328 5.52422C4.29375 5.90859 5.14219 6.75469 6 6.75C6.85313 6.75703 7.69453 5.91797 8.18672 5.52422C9.87187 4.18594 10.7156 3.50859 11.25 3.07031V7.875C11.25 8.08125 11.0813 8.25 10.875 8.25Z"/>
</symbol><symbol id="icon-facebook" viewBox="0 0 18 18">
<path d="M18 0.992411V17.0036C18 17.554 17.554 17.996 17.0076 17.996H12.4192V11.029H14.7576L15.1071 8.31295H12.4152V6.57723C12.4152 5.78973 12.6321 5.25536 13.7612 5.25536H15.1996V2.82455C14.9504 2.79241 14.0987 2.71607 13.1022 2.71607C11.029 2.71607 9.6067 3.9817 9.6067 6.30804V8.31295H7.26027V11.029H9.6067V18H0.992411C0.445982 18 0 17.554 0 17.0076V0.992411C0 0.445982 0.445982 0 0.992411 0H17.0036C17.554 0 18 0.445982 18 0.992411Z"/>
</symbol><symbol id="icon-instagram" viewBox="0 0 18 18">
<path d="M9.00201 4.38405C6.44808 4.38405 4.38806 6.44406 4.38806 8.99799C4.38806 11.5519 6.44808 13.6119 9.00201 13.6119C11.5559 13.6119 13.616 11.5519 13.616 8.99799C13.616 6.44406 11.5559 4.38405 9.00201 4.38405ZM9.00201 11.9977C7.35159 11.9977 6.00234 10.6524 6.00234 8.99799C6.00234 7.34356 7.34757 5.99833 9.00201 5.99833C10.6564 5.99833 12.0017 7.34356 12.0017 8.99799C12.0017 10.6524 10.6524 11.9977 9.00201 11.9977ZM14.8809 4.19531C14.8809 4.79364 14.399 5.2715 13.8047 5.2715C13.2064 5.2715 12.7285 4.78963 12.7285 4.19531C12.7285 3.601 13.2104 3.11913 13.8047 3.11913C14.399 3.11913 14.8809 3.601 14.8809 4.19531ZM17.9368 5.28756C17.8685 3.84596 17.5392 2.56899 16.4831 1.5169C15.431 0.464807 14.154 0.135527 12.7124 0.063246C11.2267 -0.021082 6.77334 -0.021082 5.28756 0.063246C3.84997 0.131511 2.57301 0.460792 1.5169 1.51288C0.460792 2.56498 0.135527 3.84194 0.063246 5.28355C-0.021082 6.76933 -0.021082 11.2226 0.063246 12.7084C0.131511 14.15 0.460792 15.427 1.5169 16.4791C2.57301 17.5312 3.84596 17.8605 5.28756 17.9327C6.77334 18.0171 11.2267 18.0171 12.7124 17.9327C14.154 17.8645 15.431 17.5352 16.4831 16.4791C17.5352 15.427 17.8645 14.15 17.9368 12.7084C18.0211 11.2226 18.0211 6.77334 17.9368 5.28756ZM16.0173 14.3026C15.7041 15.0897 15.0977 15.696 14.3066 16.0133C13.122 16.4831 10.3111 16.3747 9.00201 16.3747C7.69292 16.3747 4.87797 16.4791 3.69738 16.0133C2.91032 15.7001 2.30396 15.0937 1.98673 14.3026C1.5169 13.118 1.62532 10.3071 1.62532 8.99799C1.62532 7.6889 1.52091 4.87395 1.98673 3.69336C2.29994 2.9063 2.9063 2.29994 3.69738 1.98271C4.88199 1.51288 7.69292 1.6213 9.00201 1.6213C10.3111 1.6213 13.126 1.5169 14.3066 1.98271C15.0937 2.29593 15.7001 2.90229 16.0173 3.69336C16.4871 4.87797 16.3787 7.6889 16.3787 8.99799C16.3787 10.3071 16.4871 13.122 16.0173 14.3026Z"/>
</symbol><symbol id="icon-m" viewBox="0 0 18 15">
<path d="M2.13231 2.91379C2.15464 2.69423 2.06905 2.47467 1.90531 2.32582L0.227 0.301426V0H5.44428L9.47819 8.84557L13.0246 0H18V0.301426L16.5636 1.67831C16.4408 1.77135 16.3775 1.92764 16.4036 2.08022V12.2022C16.3775 12.3548 16.4408 12.5111 16.5636 12.6041L17.9665 13.981V14.2824H10.9072V13.981L12.3622 12.5706C12.5036 12.4292 12.5036 12.3845 12.5036 12.1687V3.98925L8.45855 14.2564H7.91152L3.20777 3.98925V10.87C3.16684 11.1602 3.26359 11.4505 3.46827 11.6589L5.35869 13.9512V14.2526H0V13.9549L1.89043 11.6589C2.09138 11.4505 2.18441 11.1565 2.13231 10.87V2.91379Z"/>
</symbol><symbol id="icon-menu" viewBox="0 0 27 16">
<rect width="27" height="2"/>
<rect y="7" width="27" height="2"/>
<rect x="9" y="14" width="18" height="2"/>
</symbol><symbol id="icon-phone" viewBox="0 0 18 29">
<path d="M12.6 5.4V18.9H5.4V5.4H12.6ZM15.3 0H2.7C1.20938 0 0 1.20938 0 2.7V26.1C0 27.5906 1.20938 28.8 2.7 28.8H15.3C16.7906 28.8 18 27.5906 18 26.1V2.7C18 1.20938 16.7906 0 15.3 0ZM2.7 27C2.205 27 1.8 26.595 1.8 26.1V2.7C1.8 2.205 2.205 1.8 2.7 1.8H15.3C15.795 1.8 16.2 2.205 16.2 2.7V26.1C16.2 26.595 15.795 27 15.3 27H2.7ZM13.725 3.6H4.275C3.90375 3.6 3.6 3.90375 3.6 4.275V20.025C3.6 20.3963 3.90375 20.7 4.275 20.7H13.725C14.0962 20.7 14.4 20.3963 14.4 20.025V4.275C14.4 3.90375 14.0962 3.6 13.725 3.6ZM11.025 23.4H6.975C6.60375 23.4 6.3 23.7038 6.3 24.075V24.525C6.3 24.8963 6.60375 25.2 6.975 25.2H11.025C11.3962 25.2 11.7 24.8963 11.7 24.525V24.075C11.7 23.7038 11.3962 23.4 11.025 23.4Z"/>
</symbol><symbol id="icon-scroll" viewBox="0 0 21 46">
<rect x="0.5" y="0.5" width="20" height="45" rx="10" stroke="#C4C4C4"/>
<path d="M10.6464 36.3536C10.8417 36.5488 11.1583 36.5488 11.3536 36.3536L14.5355 33.1716C14.7308 32.9763 14.7308 32.6597 14.5355 32.4645C14.3403 32.2692 14.0237 32.2692 13.8284 32.4645L11 35.2929L8.17157 32.4645C7.97631 32.2692 7.65973 32.2692 7.46447 32.4645C7.2692 32.6597 7.2692 32.9763 7.46447 33.1716L10.6464 36.3536ZM10.5 9L10.5 36H11.5L11.5 9H10.5Z" fill="#FCFCFC"/>
</symbol><symbol id="icon-twitter" viewBox="0 0 18 15">
<path d="M16.1498 3.6434C16.1612 3.80329 16.1612 3.96321 16.1612 4.12311C16.1612 9 12.4493 14.6193 5.66499 14.6193C3.57488 14.6193 1.63326 14.014 0 12.9633C0.296966 12.9975 0.582471 13.0089 0.890863 13.0089C2.61546 13.0089 4.20305 12.4264 5.47083 11.4328C3.84899 11.3985 2.48985 10.3363 2.02156 8.87439C2.25001 8.90863 2.47842 8.93148 2.71829 8.93148C3.0495 8.93148 3.38074 8.88578 3.6891 8.80587C1.99875 8.4632 0.730936 6.97844 0.730936 5.18529V5.13962C1.22204 5.41373 1.79315 5.58505 2.39844 5.60787C1.40478 4.94541 0.753788 3.81471 0.753788 2.53551C0.753788 1.85025 0.936496 1.22207 1.25631 0.673843C3.07232 2.91243 5.80203 4.37433 8.86293 4.53426C8.80583 4.26015 8.77155 3.97464 8.77155 3.6891C8.77155 1.65608 10.4162 0 12.4607 0C13.5228 0 14.4822 0.445432 15.1561 1.16498C15.9898 1.00509 16.7893 0.696694 17.4975 0.274114C17.2233 1.13074 16.6409 1.85028 15.8756 2.3071C16.618 2.22719 17.3376 2.02156 18 1.73606C17.4975 2.46699 16.8693 3.11799 16.1498 3.6434Z"/>
</symbol><symbol id="icon-youtube" viewBox="0 0 26 18">
<path d="M25.0651 2.81639C24.7707 1.7078 23.9032 0.834703 22.8018 0.538406C20.8054 0 12.8 0 12.8 0C12.8 0 4.7947 0 2.79825 0.538406C1.69683 0.83475 0.829359 1.7078 0.534938 2.81639C0 4.82578 0 9.01819 0 9.01819C0 9.01819 0 13.2106 0.534938 15.22C0.829359 16.3286 1.69683 17.1653 2.79825 17.4616C4.7947 18 12.8 18 12.8 18C12.8 18 20.8053 18 22.8018 17.4616C23.9032 17.1653 24.7707 16.3286 25.0651 15.22C25.6 13.2106 25.6 9.01819 25.6 9.01819C25.6 9.01819 25.6 4.82578 25.0651 2.81639ZM10.1818 12.8246V5.2118L16.8727 9.01828L10.1818 12.8246Z"/>
</symbol></svg>